<svg width="18" height="18" viewBox="0 0 18 18" fill="none" xmlns="http://www.w3.org/2000/svg">
<path fill-rule="evenodd" clip-rule="evenodd" d="M7.875 1.5C11.3958 1.5 14.25 4.35418 14.25 7.875C14.25 9.36489 13.7389 10.7354 12.8825 11.8208L17.0303 15.9697L15.9697 17.0303L11.8208 12.8825C10.7354 13.7389 9.36489 14.25 7.875 14.25C4.35418 14.25 1.5 11.3958 1.5 7.875C1.5 4.35418 4.35418 1.5 7.875 1.5ZM7.875 3C5.18261 3 3 5.18261 3 7.875C3 10.5674 5.18261 12.75 7.875 12.75C10.5674 12.75 12.75 10.5674 12.75 7.875C12.75 5.18261 10.5674 3 7.875 3Z" fill="#E20613"/>
</svg>
