<svg width="19" height="18" viewBox="0 0 19 18" fill="none" xmlns="http://www.w3.org/2000/svg">
<g clip-path="url(#clip0_1256_42)">
<path d="M14.741 1.5H13.991V0.75C13.991 0.336 13.6557 0 13.241 0C12.8262 0 12.491 0.336 12.491 0.75V1.5H6.49095V0.75C6.49095 0.336 6.1557 0 5.74095 0C5.3262 0 4.99095 0.336 4.99095 0.75V1.5H4.24095C2.1732 1.5 0.490952 3.18225 0.490952 5.25V14.25C0.490952 16.3177 2.1732 18 4.24095 18H14.741C16.8087 18 18.491 16.3177 18.491 14.25V5.25C18.491 3.18225 16.8087 1.5 14.741 1.5ZM4.24095 3H14.741C15.9815 3 16.991 4.0095 16.991 5.25V6H1.99095V5.25C1.99095 4.0095 3.00045 3 4.24095 3ZM14.741 16.5H4.24095C3.00045 16.5 1.99095 15.4905 1.99095 14.25V7.5H16.991V14.25C16.991 15.4905 15.9815 16.5 14.741 16.5ZM14.741 10.5C14.741 10.914 14.4057 11.25 13.991 11.25H4.99095C4.5762 11.25 4.24095 10.914 4.24095 10.5C4.24095 10.086 4.5762 9.75 4.99095 9.75H13.991C14.4057 9.75 14.741 10.086 14.741 10.5ZM9.49095 13.5C9.49095 13.914 9.1557 14.25 8.74095 14.25H4.99095C4.5762 14.25 4.24095 13.914 4.24095 13.5C4.24095 13.086 4.5762 12.75 4.99095 12.75H8.74095C9.1557 12.75 9.49095 13.086 9.49095 13.5Z" fill="white"/>
</g>
<defs>
<clipPath id="clip0_1256_42">
<rect width="18" height="18" fill="white" transform="translate(0.490952)"/>
</clipPath>
</defs>
</svg>
