<svg width="18" height="19" viewBox="0 0 18 19" fill="none" xmlns="http://www.w3.org/2000/svg">
<g clip-path="url(#clip0_401_2316)">
<path d="M14.25 2H13.5V1.25C13.5 0.836 13.1648 0.5 12.75 0.5C12.3352 0.5 12 0.836 12 1.25V2H6V1.25C6 0.836 5.66475 0.5 5.25 0.5C4.83525 0.5 4.5 0.836 4.5 1.25V2H3.75C1.68225 2 0 3.68225 0 5.75V14.75C0 16.8177 1.68225 18.5 3.75 18.5H14.25C16.3177 18.5 18 16.8177 18 14.75V5.75C18 3.68225 16.3177 2 14.25 2ZM3.75 3.5H14.25C15.4905 3.5 16.5 4.5095 16.5 5.75V6.5H1.5V5.75C1.5 4.5095 2.5095 3.5 3.75 3.5ZM14.25 17H3.75C2.5095 17 1.5 15.9905 1.5 14.75V8H16.5V14.75C16.5 15.9905 15.4905 17 14.25 17ZM14.25 11C14.25 11.414 13.9148 11.75 13.5 11.75H4.5C4.08525 11.75 3.75 11.414 3.75 11C3.75 10.586 4.08525 10.25 4.5 10.25H13.5C13.9148 10.25 14.25 10.586 14.25 11ZM9 14C9 14.414 8.66475 14.75 8.25 14.75H4.5C4.08525 14.75 3.75 14.414 3.75 14C3.75 13.586 4.08525 13.25 4.5 13.25H8.25C8.66475 13.25 9 13.586 9 14Z" fill="#BDBDBD"/>
</g>
<defs>
<clipPath id="clip0_401_2316">
<rect width="18" height="18" fill="white" transform="translate(0 0.5)"/>
</clipPath>
</defs>
</svg>
