<svg width="25" height="26" viewBox="0 0 25 26" fill="none" xmlns="http://www.w3.org/2000/svg">
<path d="M21.3367 3.625H3.66328C2.89917 3.62583 2.1666 3.92973 1.62629 4.47004C1.08598 5.01035 0.782077 5.74292 0.78125 6.50703V19.493C0.782077 20.2571 1.08598 20.9897 1.62629 21.53C2.1666 22.0703 2.89917 22.3742 3.66328 22.375H21.3367C22.1008 22.3742 22.8334 22.0703 23.3737 21.53C23.914 20.9897 24.2179 20.2571 24.2188 19.493V6.50703C24.2179 5.74292 23.914 5.01035 23.3737 4.47004C22.8334 3.92973 22.1008 3.62583 21.3367 3.625ZM3.66328 5.1875H21.3367C21.6866 5.18791 22.0219 5.32707 22.2693 5.57444C22.5167 5.82181 22.6558 6.1572 22.6562 6.50703V7.10469L12.5 13.6336L2.34375 7.10469V6.50703C2.34416 6.1572 2.48332 5.82181 2.73069 5.57444C2.97806 5.32707 3.31345 5.18791 3.66328 5.1875ZM21.3367 20.8125H3.66328C3.31345 20.8121 2.97806 20.6729 2.73069 20.4256C2.48332 20.1782 2.34416 19.8428 2.34375 19.493V8.9625L12.0773 15.2195C12.2034 15.3006 12.3501 15.3437 12.5 15.3437C12.6499 15.3437 12.7966 15.3006 12.9227 15.2195L22.6562 8.9625V19.493C22.6558 19.8428 22.5167 20.1782 22.2693 20.4256C22.0219 20.6729 21.6866 20.8121 21.3367 20.8125Z" fill="#828282"/>
</svg>
