<svg width="24" height="24" viewBox="0 0 24 24" fill="none" xmlns="http://www.w3.org/2000/svg">
<path d="M12 24C18.6274 24 24 18.6274 24 12C24 5.37258 18.6274 0 12 0C5.37258 0 0 5.37258 0 12C0 18.6274 5.37258 24 12 24Z" fill="white"/>
<path fill-rule="evenodd" clip-rule="evenodd" d="M17.7778 6.36451C16.3378 4.92451 14.4356 4.14229 12.3911 4.12451C8.19557 4.12451 4.78224 7.53785 4.78224 11.7334C4.78224 13.0667 5.13778 14.3823 5.79556 15.5378L4.71112 19.4845L8.74668 18.4178C9.86668 19.0223 11.1111 19.3423 12.3911 19.3423C16.5867 19.3423 20 15.929 20 11.7334C20 9.72451 19.2 7.80451 17.7778 6.36451ZM12.3911 18.0801C11.2533 18.0801 10.1333 17.7778 9.17334 17.1912L8.94223 17.049L6.54223 17.6712L7.18224 15.3423L7.04001 15.1112C6.40001 14.0978 6.08001 12.9423 6.08001 11.7512C6.08001 8.26673 8.92445 5.42229 12.4089 5.42229C14.0978 5.42229 15.68 6.08007 16.8889 7.27118C18.08 8.46229 18.7378 10.0623 18.7378 11.7512C18.72 15.2356 15.8756 18.0801 12.3911 18.0801ZM15.8578 13.3512C15.6622 13.2623 14.7378 12.8001 14.56 12.729C14.3822 12.6578 14.2578 12.6401 14.1333 12.8178C14.0089 13.0134 13.6356 13.4401 13.5289 13.5645C13.4222 13.689 13.3156 13.7067 13.12 13.6178C12.9245 13.529 12.32 13.3156 11.5911 12.6756C11.0222 12.1778 10.6489 11.5556 10.5245 11.3601C10.4178 11.1645 10.5067 11.0756 10.6133 10.969C10.7022 10.8801 10.8089 10.7556 10.8978 10.6312C10.9867 10.5245 11.0222 10.4356 11.0933 10.3112C11.1645 10.1867 11.1289 10.0801 11.0756 9.9734C11.0222 9.88451 10.6489 8.94229 10.4889 8.56896C10.3289 8.19562 10.1689 8.24896 10.0622 8.24896C9.95556 8.24896 9.83112 8.24896 9.6889 8.24896C9.56445 8.24896 9.35112 8.30229 9.17334 8.48007C8.99556 8.67562 8.51557 9.13785 8.51557 10.0623C8.51557 11.0045 9.19112 11.9112 9.29779 12.0356C9.38667 12.1601 10.6311 14.0801 12.5511 14.9156C13.0133 15.1112 13.3511 15.2356 13.6356 15.3245C14.0978 15.4667 14.5067 15.449 14.8267 15.3956C15.2 15.3423 15.9467 14.9334 16.1067 14.489C16.2667 14.0445 16.2667 13.6712 16.2133 13.5823C16.1778 13.4934 16.0533 13.4401 15.8578 13.3512Z" fill="#E20613"/>
</svg>
