<svg width="24" height="24" viewBox="0 0 24 24" fill="none" xmlns="http://www.w3.org/2000/svg">
<path d="M12 24C18.6274 24 24 18.6274 24 12C24 5.37258 18.6274 0 12 0C5.37258 0 0 5.37258 0 12C0 18.6274 5.37258 24 12 24Z" fill="#26428C"/>
<path d="M8.12439 12.8711L9.54661 16.8178C9.54661 16.8178 9.72439 17.1911 9.91995 17.1911C10.1155 17.1911 12.9422 14.24 12.9422 14.24L16.0888 8.14221L8.17773 11.8578L8.12439 12.8711Z" fill="#BDBDBD"/>
<path d="M10.0089 13.8845L9.74222 16.7823C9.74222 16.7823 9.63555 17.6712 10.5244 16.7823C11.4133 15.8934 12.2667 15.2001 12.2667 15.2001L10.0089 13.8845Z" fill="#BDBDBD"/>
<path d="M8.14228 13.0133L5.20895 12.0533C5.20895 12.0533 4.85339 11.9111 4.97784 11.5911C4.99561 11.52 5.04895 11.4666 5.19117 11.3777C5.84895 10.9333 17.2089 6.84442 17.2089 6.84442C17.2089 6.84442 17.5289 6.73776 17.7245 6.80887C17.8134 6.84443 17.8667 6.87997 17.9201 7.02219C17.9378 7.07553 17.9556 7.18219 17.9378 7.28886C17.9378 7.35997 17.9201 7.43109 17.9201 7.53775C17.8489 8.65775 15.7867 16.9955 15.7867 16.9955C15.7867 16.9955 15.6623 17.4755 15.2178 17.4933C15.0578 17.4933 14.8623 17.4578 14.6312 17.2622C13.7601 16.5155 10.7556 14.4889 10.0801 14.0444C10.0445 14.0266 10.0267 13.9911 10.0267 13.9555C10.0089 13.9022 10.0623 13.8489 10.0623 13.8489C10.0623 13.8489 15.3067 9.19109 15.4489 8.69331C15.4667 8.65775 15.4134 8.63997 15.3601 8.65775C15.0045 8.7822 8.97784 12.6044 8.30228 13.0133C8.24895 13.0311 8.14228 13.0133 8.14228 13.0133Z" fill="white"/>
</svg>
