<svg width="25" height="25" viewBox="0 0 25 25" fill="none" xmlns="http://www.w3.org/2000/svg">
<mask id="mask0_401_3643" style="mask-type:luminance" maskUnits="userSpaceOnUse" x="0" y="0" width="25" height="25">
<path d="M0 1.90735e-06H25V25H0V1.90735e-06Z" fill="white"/>
</mask>
<g mask="url(#mask0_401_3643)">
<path d="M12.5 0.732422C5.36235 0.732422 1.29531 8.89624 5.59023 14.6025L12.5 23.7822L19.4098 14.6025C23.7047 8.89624 19.6376 0.732422 12.5 0.732422Z" stroke="#26428C" stroke-width="1.6" stroke-miterlimit="10"/>
<path d="M16.04 9.39941C16.04 11.3545 14.4551 12.9395 12.5 12.9395C10.5449 12.9395 8.95996 11.3545 8.95996 9.39941C8.95996 7.44429 10.5449 5.85938 12.5 5.85938C14.4551 5.85938 16.04 7.44429 16.04 9.39941Z" stroke="#26428C" stroke-width="1.6" stroke-miterlimit="10"/>
<path d="M20.0796 5.21682L9.30272 19.5341" stroke="#26428C" stroke-width="1.6" stroke-miterlimit="10"/>
<path d="M14.4355 0.941895L4.92284 13.5796" stroke="#26428C" stroke-width="1.6" stroke-miterlimit="10"/>
<path d="M9.6715 7.27039L5.57912 4.19001" stroke="#26428C" stroke-width="1.6" stroke-miterlimit="10"/>
</g>
</svg>
