<svg width="224" height="38" viewBox="0 0 224 38" fill="none" xmlns="http://www.w3.org/2000/svg">
<path d="M39.1119 8.58398V29.448L36.2639 26.696H43.2719V37.416H37.0319V30.184L40.0399 32.584H0.103882V8.58398H6.72788V29.448L3.87988 26.696H19.1439L16.2959 29.448V8.58398H22.9199V29.448L20.0719 26.696H35.3359L32.4879 29.448V8.58398H39.1119Z" fill="#E20613"/>
<path d="M68.2396 18.184V22.984H50.6716V18.184H68.2396ZM55.1836 20.584L53.6156 30.216L50.9276 27.208H69.2956V32.584H46.9916L48.8156 20.584L46.9916 8.58398H69.1356V13.96H50.9276L53.6156 10.952L55.1836 20.584Z" fill="#E20613"/>
<path d="M78.3201 8.58398H101.872V32.584H95.2161V11.464L98.2241 14.472H82.0321L84.8161 12.264C84.9868 13.672 85.1041 15.0267 85.1681 16.328C85.2321 17.608 85.2641 18.824 85.2641 19.976C85.2641 23.048 84.9868 25.5546 84.4321 27.496C83.8775 29.416 83.0028 30.824 81.8081 31.72C80.6135 32.616 79.0668 33.064 77.1681 33.064C76.3361 33.064 75.5148 32.9787 74.7041 32.808C73.9148 32.6373 73.1895 32.3813 72.5281 32.04V26.536C73.4668 26.8987 74.3308 27.08 75.1201 27.08C76.5068 27.08 77.4988 26.4507 78.0961 25.192C78.7148 23.9333 79.0241 21.8747 79.0241 19.016C79.0241 17.6293 78.9601 16.072 78.8321 14.344C78.7255 12.616 78.5548 10.696 78.3201 8.58398Z" fill="#E20613"/>
<path d="M107.6 32.584V8.58398H114.192V27.304L112.432 25.928L126.032 8.58398H133.04L113.584 32.584H107.6ZM119.056 21.128L123.92 17.096L133.36 32.584H125.84L119.056 21.128Z" fill="#E20613"/>
<path d="M148.314 33.096C145.477 33.096 142.981 32.5733 140.826 31.528C138.693 30.4827 137.029 29.0213 135.834 27.144C134.661 25.2667 134.074 23.08 134.074 20.584C134.074 18.088 134.661 15.9013 135.834 14.024C137.029 12.1466 138.693 10.6853 140.826 9.63998C142.981 8.59465 145.477 8.07198 148.314 8.07198C151.173 8.07198 153.669 8.59465 155.802 9.63998C157.935 10.6853 159.599 12.1466 160.794 14.024C161.989 15.9013 162.586 18.088 162.586 20.584C162.586 23.08 161.989 25.2667 160.794 27.144C159.599 29.0213 157.935 30.4827 155.802 31.528C153.669 32.5733 151.173 33.096 148.314 33.096ZM148.314 27.176C149.871 27.176 151.215 26.9093 152.346 26.376C153.477 25.8427 154.341 25.0853 154.938 24.104C155.557 23.1227 155.866 21.9493 155.866 20.584C155.866 19.2187 155.557 18.0453 154.938 17.064C154.341 16.0827 153.477 15.3253 152.346 14.792C151.215 14.2586 149.871 13.992 148.314 13.992C146.778 13.992 145.445 14.2586 144.314 14.792C143.183 15.3253 142.309 16.0827 141.69 17.064C141.071 18.0453 140.762 19.2187 140.762 20.584C140.762 21.9493 141.071 23.1227 141.69 24.104C142.309 25.0853 143.183 25.8427 144.314 26.376C145.445 26.9093 146.778 27.176 148.314 27.176Z" fill="#E20613"/>
<path d="M183.26 20.84L183.804 19.592C185.66 19.6347 187.185 19.9227 188.38 20.456C189.596 20.968 190.503 21.6933 191.1 22.632C191.697 23.5493 191.996 24.616 191.996 25.832C191.996 27.1333 191.697 28.296 191.1 29.32C190.503 30.3227 189.607 31.1227 188.412 31.72C187.239 32.296 185.767 32.584 183.996 32.584H166.268L168.124 20.264L166.268 8.58398H183.356C185.575 8.58398 187.303 9.10665 188.54 10.152C189.777 11.176 190.396 12.6053 190.396 14.44C190.396 15.4426 190.161 16.4027 189.692 17.32C189.223 18.2373 188.465 19.016 187.42 19.656C186.396 20.2746 185.009 20.6693 183.26 20.84ZM172.828 31.048L170.268 27.944H182.204C183.164 27.944 183.911 27.7093 184.444 27.24C184.977 26.7707 185.244 26.12 185.244 25.288C185.244 24.456 184.956 23.7947 184.38 23.304C183.804 22.792 182.951 22.536 181.82 22.536H171.964V17.992H180.924C181.692 17.992 182.332 17.768 182.844 17.32C183.377 16.8507 183.644 16.2213 183.644 15.432C183.644 14.792 183.42 14.2693 182.972 13.864C182.524 13.4373 181.884 13.224 181.052 13.224H170.3L172.828 10.12L174.46 20.264L172.828 31.048Z" fill="#E20613"/>
<path d="M209.624 33.096C206.787 33.096 204.291 32.5733 202.136 31.528C200.003 30.4827 198.339 29.0213 197.144 27.144C195.971 25.2667 195.384 23.08 195.384 20.584C195.384 18.088 195.971 15.9013 197.144 14.024C198.339 12.1466 200.003 10.6853 202.136 9.63998C204.291 8.59465 206.787 8.07198 209.624 8.07198C212.483 8.07198 214.979 8.59465 217.112 9.63998C219.245 10.6853 220.909 12.1466 222.104 14.024C223.299 15.9013 223.896 18.088 223.896 20.584C223.896 23.08 223.299 25.2667 222.104 27.144C220.909 29.0213 219.245 30.4827 217.112 31.528C214.979 32.5733 212.483 33.096 209.624 33.096ZM209.624 27.176C211.181 27.176 212.525 26.9093 213.656 26.376C214.787 25.8427 215.651 25.0853 216.248 24.104C216.867 23.1227 217.176 21.9493 217.176 20.584C217.176 19.2187 216.867 18.0453 216.248 17.064C215.651 16.0827 214.787 15.3253 213.656 14.792C212.525 14.2586 211.181 13.992 209.624 13.992C208.088 13.992 206.755 14.2586 205.624 14.792C204.493 15.3253 203.619 16.0827 203 17.064C202.381 18.0453 202.072 19.2187 202.072 20.584C202.072 21.9493 202.381 23.1227 203 24.104C203.619 25.0853 204.493 25.8427 205.624 26.376C206.755 26.9093 208.088 27.176 209.624 27.176Z" fill="#E20613"/>
<path d="M45.8639 0.583984H68.8639V4.58398H46.8639L45.8639 0.583984Z" fill="#E20613"/>
</svg>
