<svg width="228" height="68" viewBox="0 0 228 68" fill="none" xmlns="http://www.w3.org/2000/svg">
<path d="M41.248 8.00049V28.8645L38.4 26.1125H45.408V36.8325H39.168V29.6005L42.176 32.0005H2.24V8.00049H8.864V28.8645L6.016 26.1125H21.28L18.432 28.8645V8.00049H25.056V28.8645L22.208 26.1125H37.472L34.624 28.8645V8.00049H41.248ZM70.3757 17.6005V22.4005H52.8077V17.6005H70.3757ZM57.3197 20.0005L55.7517 29.6325L53.0637 26.6245H71.4317V32.0005H49.1277L50.9517 20.0005L49.1277 8.00049H71.2717V13.3765H53.0637L55.7517 10.3685L57.3197 20.0005ZM80.4562 8.00049H104.008V32.0005H97.3522V10.8805L100.36 13.8885H84.1682L86.9522 11.6805C87.1229 13.0885 87.2402 14.4432 87.3042 15.7445C87.3682 17.0245 87.4002 18.2405 87.4002 19.3925C87.4002 22.4645 87.1229 24.9712 86.5682 26.9125C86.0136 28.8325 85.1389 30.2405 83.9442 31.1365C82.7496 32.0325 81.2029 32.4805 79.3042 32.4805C78.4722 32.4805 77.6509 32.3952 76.8402 32.2245C76.0509 32.0538 75.3256 31.7978 74.6642 31.4565V25.9525C75.6029 26.3152 76.4669 26.4965 77.2562 26.4965C78.6429 26.4965 79.6349 25.8672 80.2322 24.6085C80.8509 23.3498 81.1602 21.2912 81.1602 18.4325C81.1602 17.0458 81.0962 15.4885 80.9682 13.7605C80.8616 12.0325 80.6909 10.1125 80.4562 8.00049ZM109.736 32.0005V8.00049H116.328V26.7205L114.568 25.3445L128.168 8.00049H135.176L115.72 32.0005H109.736ZM121.192 20.5445L126.056 16.5125L135.496 32.0005H127.976L121.192 20.5445ZM150.45 32.5125C147.613 32.5125 145.117 31.9898 142.962 30.9445C140.829 29.8992 139.165 28.4378 137.97 26.5605C136.797 24.6832 136.21 22.4965 136.21 20.0005C136.21 17.5045 136.797 15.3178 137.97 13.4405C139.165 11.5632 140.829 10.1018 142.962 9.05649C145.117 8.01115 147.613 7.48849 150.45 7.48849C153.309 7.48849 155.805 8.01115 157.938 9.05649C160.072 10.1018 161.736 11.5632 162.93 13.4405C164.125 15.3178 164.722 17.5045 164.722 20.0005C164.722 22.4965 164.125 24.6832 162.93 26.5605C161.736 28.4378 160.072 29.8992 157.938 30.9445C155.805 31.9898 153.309 32.5125 150.45 32.5125ZM150.45 26.5925C152.008 26.5925 153.352 26.3258 154.482 25.7925C155.613 25.2592 156.477 24.5018 157.074 23.5205C157.693 22.5392 158.002 21.3658 158.002 20.0005C158.002 18.6352 157.693 17.4618 157.074 16.4805C156.477 15.4992 155.613 14.7418 154.482 14.2085C153.352 13.6752 152.008 13.4085 150.45 13.4085C148.914 13.4085 147.581 13.6752 146.45 14.2085C145.32 14.7418 144.445 15.4992 143.826 16.4805C143.208 17.4618 142.898 18.6352 142.898 20.0005C142.898 21.3658 143.208 22.5392 143.826 23.5205C144.445 24.5018 145.32 25.2592 146.45 25.7925C147.581 26.3258 148.914 26.5925 150.45 26.5925ZM185.396 20.2565L185.94 19.0085C187.796 19.0512 189.321 19.3392 190.516 19.8725C191.732 20.3845 192.639 21.1098 193.236 22.0485C193.833 22.9658 194.132 24.0325 194.132 25.2485C194.132 26.5498 193.833 27.7125 193.236 28.7365C192.639 29.7392 191.743 30.5392 190.548 31.1365C189.375 31.7125 187.903 32.0005 186.132 32.0005H168.404L170.26 19.6805L168.404 8.00049H185.492C187.711 8.00049 189.439 8.52315 190.676 9.56849C191.913 10.5925 192.532 12.0218 192.532 13.8565C192.532 14.8592 192.297 15.8192 191.828 16.7365C191.359 17.6538 190.601 18.4325 189.556 19.0725C188.532 19.6912 187.145 20.0858 185.396 20.2565ZM174.964 30.4645L172.404 27.3605H184.34C185.3 27.3605 186.047 27.1258 186.58 26.6565C187.113 26.1872 187.38 25.5365 187.38 24.7045C187.38 23.8725 187.092 23.2112 186.516 22.7205C185.94 22.2085 185.087 21.9525 183.956 21.9525H174.1V17.4085H183.06C183.828 17.4085 184.468 17.1845 184.98 16.7365C185.513 16.2672 185.78 15.6378 185.78 14.8485C185.78 14.2085 185.556 13.6858 185.108 13.2805C184.66 12.8538 184.02 12.6405 183.188 12.6405H172.436L174.964 9.53649L176.596 19.6805L174.964 30.4645ZM211.76 32.5125C208.923 32.5125 206.427 31.9898 204.272 30.9445C202.139 29.8992 200.475 28.4378 199.28 26.5605C198.107 24.6832 197.52 22.4965 197.52 20.0005C197.52 17.5045 198.107 15.3178 199.28 13.4405C200.475 11.5632 202.139 10.1018 204.272 9.05649C206.427 8.01115 208.923 7.48849 211.76 7.48849C214.619 7.48849 217.115 8.01115 219.248 9.05649C221.382 10.1018 223.046 11.5632 224.24 13.4405C225.435 15.3178 226.032 17.5045 226.032 20.0005C226.032 22.4965 225.435 24.6832 224.24 26.5605C223.046 28.4378 221.382 29.8992 219.248 30.9445C217.115 31.9898 214.619 32.5125 211.76 32.5125ZM211.76 26.5925C213.318 26.5925 214.662 26.3258 215.792 25.7925C216.923 25.2592 217.787 24.5018 218.384 23.5205C219.003 22.5392 219.312 21.3658 219.312 20.0005C219.312 18.6352 219.003 17.4618 218.384 16.4805C217.787 15.4992 216.923 14.7418 215.792 14.2085C214.662 13.6752 213.318 13.4085 211.76 13.4085C210.224 13.4085 208.891 13.6752 207.76 14.2085C206.63 14.7418 205.755 15.4992 205.136 16.4805C204.518 17.4618 204.208 18.6352 204.208 20.0005C204.208 21.3658 204.518 22.5392 205.136 23.5205C205.755 24.5018 206.63 25.2592 207.76 25.7925C208.891 26.3258 210.224 26.5925 211.76 26.5925Z" fill="#E20613"/>
<path d="M48 0.000488281H71V4.00049H49L48 0.000488281Z" fill="#E20613"/>
<path d="M4.564 49.3545H6.412V59.0005H4.564V49.3545ZM0.224 48.5005H10.752V50.1245H0.224V48.5005ZM21.4076 59.1965C20.213 59.1965 19.163 58.9678 18.2576 58.5105C17.3523 58.0532 16.6476 57.4185 16.1436 56.6065C15.6396 55.7852 15.3876 54.8332 15.3876 53.7505C15.3876 52.6678 15.6396 51.7205 16.1436 50.9085C16.6476 50.0872 17.3523 49.4478 18.2576 48.9905C19.163 48.5332 20.213 48.3045 21.4076 48.3045C22.6023 48.3045 23.6523 48.5332 24.5576 48.9905C25.463 49.4478 26.1676 50.0872 26.6716 50.9085C27.1756 51.7205 27.4276 52.6678 27.4276 53.7505C27.4276 54.8332 27.1756 55.7852 26.6716 56.6065C26.1676 57.4185 25.463 58.0532 24.5576 58.5105C23.6523 58.9678 22.6023 59.1965 21.4076 59.1965ZM21.4076 57.5445C22.257 57.5445 22.9896 57.3905 23.6056 57.0825C24.2216 56.7745 24.6976 56.3358 25.0336 55.7665C25.379 55.1972 25.5516 54.5252 25.5516 53.7505C25.5516 52.9758 25.379 52.3038 25.0336 51.7345C24.6976 51.1652 24.2216 50.7265 23.6056 50.4185C22.9896 50.1105 22.257 49.9565 21.4076 49.9565C20.5676 49.9565 19.835 50.1105 19.2096 50.4185C18.5936 50.7265 18.113 51.1652 17.7676 51.7345C17.4316 52.3038 17.2636 52.9758 17.2636 53.7505C17.2636 54.5252 17.4316 55.1972 17.7676 55.7665C18.113 56.3358 18.5936 56.7745 19.2096 57.0825C19.835 57.3905 20.5676 57.5445 21.4076 57.5445ZM39.121 48.5005C39.905 48.5005 40.5817 48.6405 41.151 48.9205C41.7297 49.2005 42.173 49.5925 42.481 50.0965C42.7984 50.5912 42.957 51.1652 42.957 51.8185C42.957 52.4718 42.7984 53.0505 42.481 53.5545C42.173 54.0492 41.7297 54.4365 41.151 54.7165C40.5817 54.9965 39.905 55.1365 39.121 55.1365H34.403V53.5405H39.051C39.6857 53.5405 40.1804 53.3865 40.535 53.0785C40.899 52.7705 41.081 52.3505 41.081 51.8185C41.081 51.2865 40.899 50.8665 40.535 50.5585C40.1804 50.2505 39.6857 50.0965 39.051 50.0965H34.585L35.411 49.1725V59.0005H33.563V48.5005H39.121ZM56.1632 48.5005V50.1385H49.8212L50.6612 49.2985V59.0005H48.8132V48.5005H56.1632ZM66.7753 59.1965C65.5806 59.1965 64.5306 58.9678 63.6253 58.5105C62.72 58.0532 62.0153 57.4185 61.5113 56.6065C61.0073 55.7852 60.7553 54.8332 60.7553 53.7505C60.7553 52.6678 61.0073 51.7205 61.5113 50.9085C62.0153 50.0872 62.72 49.4478 63.6253 48.9905C64.5306 48.5332 65.5806 48.3045 66.7753 48.3045C67.97 48.3045 69.02 48.5332 69.9253 48.9905C70.8306 49.4478 71.5353 50.0872 72.0393 50.9085C72.5433 51.7205 72.7953 52.6678 72.7953 53.7505C72.7953 54.8332 72.5433 55.7852 72.0393 56.6065C71.5353 57.4185 70.8306 58.0532 69.9253 58.5105C69.02 58.9678 67.97 59.1965 66.7753 59.1965ZM66.7753 57.5445C67.6246 57.5445 68.3573 57.3905 68.9733 57.0825C69.5893 56.7745 70.0653 56.3358 70.4013 55.7665C70.7466 55.1972 70.9193 54.5252 70.9193 53.7505C70.9193 52.9758 70.7466 52.3038 70.4013 51.7345C70.0653 51.1652 69.5893 50.7265 68.9733 50.4185C68.3573 50.1105 67.6246 49.9565 66.7753 49.9565C65.9353 49.9565 65.2026 50.1105 64.5773 50.4185C63.9613 50.7265 63.4806 51.1652 63.1353 51.7345C62.7993 52.3038 62.6313 52.9758 62.6313 53.7505C62.6313 54.5252 62.7993 55.1972 63.1353 55.7665C63.4806 56.3358 63.9613 56.7745 64.5773 57.0825C65.2026 57.3905 65.9353 57.5445 66.7753 57.5445ZM85.205 53.7925L85.387 53.3865C86.2176 53.3958 86.8943 53.5218 87.417 53.7645C87.949 54.0072 88.3363 54.3338 88.579 54.7445C88.831 55.1552 88.957 55.6172 88.957 56.1305C88.957 56.6905 88.8216 57.1852 88.551 57.6145C88.2896 58.0438 87.9023 58.3845 87.389 58.6365C86.8756 58.8792 86.2363 59.0005 85.471 59.0005H78.471L79.297 53.6105L78.471 48.5005H85.219C86.1896 48.5005 86.9363 48.7292 87.459 49.1865C87.991 49.6345 88.257 50.2552 88.257 51.0485C88.257 51.4685 88.1543 51.8792 87.949 52.2805C87.753 52.6725 87.431 53.0085 86.983 53.2885C86.5443 53.5592 85.9516 53.7272 85.205 53.7925ZM80.333 58.4825L79.619 57.5165H85.261C85.8396 57.5165 86.2876 57.3858 86.605 57.1245C86.9316 56.8538 87.095 56.4712 87.095 55.9765C87.095 55.4538 86.9036 55.0478 86.521 54.7585C86.1476 54.4692 85.5923 54.3245 84.855 54.3245H80.305V52.8965H84.673C85.1676 52.8965 85.5783 52.7612 85.905 52.4905C86.2316 52.2105 86.395 51.8138 86.395 51.3005C86.395 50.9178 86.2596 50.6052 85.989 50.3625C85.7183 50.1105 85.3263 49.9845 84.813 49.9845H79.619L80.333 49.0185L81.075 53.6105L80.333 58.4825ZM95.0285 59.0005V48.5005H96.8765V58.3285L96.0505 57.5025H100.447C101.091 57.5025 101.599 57.3392 101.973 57.0125C102.346 56.6765 102.533 56.2332 102.533 55.6825C102.533 55.1225 102.346 54.6792 101.973 54.3525C101.599 54.0165 101.091 53.8485 100.447 53.8485H95.8685V52.3505H100.531C101.324 52.3505 102.01 52.4905 102.589 52.7705C103.167 53.0505 103.615 53.4425 103.933 53.9465C104.25 54.4412 104.409 55.0198 104.409 55.6825C104.409 56.3358 104.25 56.9145 103.933 57.4185C103.615 57.9132 103.167 58.3005 102.589 58.5805C102.01 58.8605 101.324 59.0005 100.531 59.0005H95.0285ZM105.557 48.5005H107.405V59.0005H105.557V48.5005ZM114.093 59.0005V48.5005H115.885V58.1325L115.255 58.0205L122.577 48.5005H124.985V59.0005H123.193V49.2845L123.823 49.3965L116.445 59.0005H114.093ZM116.417 45.4905H117.929C118.032 45.8452 118.209 46.1205 118.461 46.3165C118.722 46.5032 119.054 46.5965 119.455 46.5965C119.866 46.5965 120.197 46.5032 120.449 46.3165C120.701 46.1205 120.878 45.8452 120.981 45.4905H122.493C122.334 46.2372 121.984 46.7972 121.443 47.1705C120.902 47.5345 120.239 47.7165 119.455 47.7165C118.671 47.7165 118.008 47.5345 117.467 47.1705C116.926 46.7972 116.576 46.2372 116.417 45.4905ZM149.946 48.5005V57.9225L149.386 57.3625H151.794V61.1565H150.072V58.7345L150.912 59.0005H139.726V48.5005H141.574V57.9225L141.014 57.3625H148.672L148.112 57.9225V48.5005H149.946ZM166.042 52.9805V54.5205H158.706V52.9805H166.042ZM159.924 53.7505L159.182 58.4405L158.3 57.4045H166.448V59.0005H157.292L158.132 53.7505L157.292 48.5005H166.378V50.0965H158.3L159.182 49.0605L159.924 53.7505ZM172.715 48.5005H174.563V59.0005H172.715V48.5005ZM181.255 48.5005H183.103V59.0005H181.255V48.5005ZM173.709 52.8965H182.137V54.5205H173.709V52.8965ZM193.185 49.3545H195.033V59.0005H193.185V49.3545ZM188.845 48.5005H199.373V50.1245H188.845V48.5005ZM210.674 48.5005C211.458 48.5005 212.134 48.6405 212.704 48.9205C213.282 49.2005 213.726 49.5925 214.034 50.0965C214.351 50.5912 214.51 51.1652 214.51 51.8185C214.51 52.4718 214.351 53.0505 214.034 53.5545C213.726 54.0492 213.282 54.4365 212.704 54.7165C212.134 54.9965 211.458 55.1365 210.674 55.1365H205.956V53.5405H210.604C211.238 53.5405 211.733 53.3865 212.088 53.0785C212.452 52.7705 212.634 52.3505 212.634 51.8185C212.634 51.2865 212.452 50.8665 212.088 50.5585C211.733 50.2505 211.238 50.0965 210.604 50.0965H206.138L206.964 49.1725V59.0005H205.116V48.5005H210.674Z" fill="#BDBDBD"/>
</svg>
