<svg width="114" height="20" viewBox="0 0 114 20" fill="none" xmlns="http://www.w3.org/2000/svg">
<g opacity="0.4">
<path d="M20.624 4V14.432L19.2 13.056H22.704V18.416H19.584V14.8L21.088 16H1.12V4H4.432V14.432L3.008 13.056H10.64L9.216 14.432V4H12.528V14.432L11.104 13.056H18.736L17.312 14.432V4H20.624ZM35.1879 8.8V11.2H26.4039V8.8H35.1879ZM28.6599 10L27.8759 14.816L26.5319 13.312H35.7159V16H24.5639L25.4759 10L24.5639 4H35.6359V6.688H26.5319L27.8759 5.184L28.6599 10ZM40.2281 4H52.0041V16H48.6761V5.44L50.1801 6.944H42.0841L43.4761 5.84C43.5615 6.544 43.6201 7.22133 43.6521 7.872C43.6841 8.512 43.7001 9.12 43.7001 9.696C43.7001 11.232 43.5615 12.4853 43.2841 13.456C43.0068 14.416 42.5695 15.12 41.9721 15.568C41.3748 16.016 40.6015 16.24 39.6521 16.24C39.2361 16.24 38.8255 16.1973 38.4201 16.112C38.0255 16.0267 37.6628 15.8987 37.3321 15.728V12.976C37.8015 13.1573 38.2335 13.248 38.6281 13.248C39.3215 13.248 39.8175 12.9333 40.1161 12.304C40.4255 11.6747 40.5801 10.6453 40.5801 9.216C40.5801 8.52267 40.5481 7.744 40.4841 6.88C40.4308 6.016 40.3455 5.056 40.2281 4ZM54.8681 16V4H58.1641V13.36L57.2841 12.672L64.0841 4H67.5881L57.8601 16H54.8681ZM60.5961 10.272L63.0281 8.256L67.7481 16H63.9881L60.5961 10.272ZM75.2251 16.256C73.8065 16.256 72.5585 15.9947 71.4811 15.472C70.4145 14.9493 69.5825 14.2187 68.9851 13.28C68.3985 12.3413 68.1051 11.248 68.1051 10C68.1051 8.752 68.3985 7.65867 68.9851 6.72C69.5825 5.78133 70.4145 5.05067 71.4811 4.528C72.5585 4.00533 73.8065 3.744 75.2251 3.744C76.6545 3.744 77.9025 4.00533 78.9691 4.528C80.0358 5.05067 80.8678 5.78133 81.4651 6.72C82.0625 7.65867 82.3611 8.752 82.3611 10C82.3611 11.248 82.0625 12.3413 81.4651 13.28C80.8678 14.2187 80.0358 14.9493 78.9691 15.472C77.9025 15.9947 76.6545 16.256 75.2251 16.256ZM75.2251 13.296C76.0038 13.296 76.6758 13.1627 77.2411 12.896C77.8065 12.6293 78.2385 12.2507 78.5371 11.76C78.8465 11.2693 79.0011 10.6827 79.0011 10C79.0011 9.31733 78.8465 8.73067 78.5371 8.24C78.2385 7.74933 77.8065 7.37067 77.2411 7.104C76.6758 6.83733 76.0038 6.704 75.2251 6.704C74.4571 6.704 73.7905 6.83733 73.2251 7.104C72.6598 7.37067 72.2225 7.74933 71.9131 8.24C71.6038 8.73067 71.4491 9.31733 71.4491 10C71.4491 10.6827 71.6038 11.2693 71.9131 11.76C72.2225 12.2507 72.6598 12.6293 73.2251 12.896C73.7905 13.1627 74.4571 13.296 75.2251 13.296ZM92.698 10.128L92.97 9.504C93.898 9.52533 94.6607 9.66933 95.258 9.936C95.866 10.192 96.3193 10.5547 96.618 11.024C96.9167 11.4827 97.066 12.016 97.066 12.624C97.066 13.2747 96.9167 13.856 96.618 14.368C96.3193 14.8693 95.8713 15.2693 95.274 15.568C94.6873 15.856 93.9513 16 93.066 16H84.202L85.13 9.84L84.202 4H92.746C93.8553 4 94.7193 4.26133 95.338 4.784C95.9567 5.296 96.266 6.01067 96.266 6.928C96.266 7.42933 96.1487 7.90933 95.914 8.368C95.6793 8.82667 95.3007 9.216 94.778 9.536C94.266 9.84533 93.5727 10.0427 92.698 10.128ZM87.482 15.232L86.202 13.68H92.17C92.65 13.68 93.0233 13.5627 93.29 13.328C93.5567 13.0933 93.69 12.768 93.69 12.352C93.69 11.936 93.546 11.6053 93.258 11.36C92.97 11.104 92.5433 10.976 91.978 10.976H87.05V8.704H91.53C91.914 8.704 92.234 8.592 92.49 8.368C92.7567 8.13333 92.89 7.81867 92.89 7.424C92.89 7.104 92.778 6.84267 92.554 6.64C92.33 6.42667 92.01 6.32 91.594 6.32H86.218L87.482 4.768L88.298 9.84L87.482 15.232ZM105.88 16.256C104.461 16.256 103.213 15.9947 102.136 15.472C101.069 14.9493 100.237 14.2187 99.6401 13.28C99.0535 12.3413 98.7601 11.248 98.7601 10C98.7601 8.752 99.0535 7.65867 99.6401 6.72C100.237 5.78133 101.069 5.05067 102.136 4.528C103.213 4.00533 104.461 3.744 105.88 3.744C107.309 3.744 108.557 4.00533 109.624 4.528C110.691 5.05067 111.523 5.78133 112.12 6.72C112.717 7.65867 113.016 8.752 113.016 10C113.016 11.248 112.717 12.3413 112.12 13.28C111.523 14.2187 110.691 14.9493 109.624 15.472C108.557 15.9947 107.309 16.256 105.88 16.256ZM105.88 13.296C106.659 13.296 107.331 13.1627 107.896 12.896C108.461 12.6293 108.893 12.2507 109.192 11.76C109.501 11.2693 109.656 10.6827 109.656 10C109.656 9.31733 109.501 8.73067 109.192 8.24C108.893 7.74933 108.461 7.37067 107.896 7.104C107.331 6.83733 106.659 6.704 105.88 6.704C105.112 6.704 104.445 6.83733 103.88 7.104C103.315 7.37067 102.877 7.74933 102.568 8.24C102.259 8.73067 102.104 9.31733 102.104 10C102.104 10.6827 102.259 11.2693 102.568 11.76C102.877 12.2507 103.315 12.6293 103.88 12.896C104.445 13.1627 105.112 13.296 105.88 13.296Z" fill="white"/>
<path d="M24 0H36V2H24.5217L24 0Z" fill="white"/>
</g>
</svg>
