<svg width="228" height="40" viewBox="0 0 228 40" fill="none" xmlns="http://www.w3.org/2000/svg">
<g opacity="0.5">
<path d="M41.248 8V28.864L38.4 26.112H45.408V36.832H39.168V29.6L42.176 32H2.24V8H8.864V28.864L6.016 26.112H21.28L18.432 28.864V8H25.056V28.864L22.208 26.112H37.472L34.624 28.864V8H41.248ZM70.3757 17.6V22.4H52.8077V17.6H70.3757ZM57.3197 20L55.7517 29.632L53.0637 26.624H71.4317V32H49.1277L50.9517 20L49.1277 8H71.2717V13.376H53.0637L55.7517 10.368L57.3197 20ZM80.4562 8H104.008V32H97.3522V10.88L100.36 13.888H84.1682L86.9522 11.68C87.1229 13.088 87.2402 14.4427 87.3042 15.744C87.3682 17.024 87.4002 18.24 87.4002 19.392C87.4002 22.464 87.1229 24.9707 86.5682 26.912C86.0136 28.832 85.1389 30.24 83.9442 31.136C82.7496 32.032 81.2029 32.48 79.3042 32.48C78.4722 32.48 77.6509 32.3947 76.8402 32.224C76.0509 32.0533 75.3256 31.7973 74.6642 31.456V25.952C75.6029 26.3147 76.4669 26.496 77.2562 26.496C78.6429 26.496 79.6349 25.8667 80.2322 24.608C80.8509 23.3493 81.1602 21.2907 81.1602 18.432C81.1602 17.0453 81.0962 15.488 80.9682 13.76C80.8616 12.032 80.6909 10.112 80.4562 8ZM109.736 32V8H116.328V26.72L114.568 25.344L128.168 8H135.176L115.72 32H109.736ZM121.192 20.544L126.056 16.512L135.496 32H127.976L121.192 20.544ZM150.45 32.512C147.613 32.512 145.117 31.9893 142.962 30.944C140.829 29.8987 139.165 28.4373 137.97 26.56C136.797 24.6827 136.21 22.496 136.21 20C136.21 17.504 136.797 15.3173 137.97 13.44C139.165 11.5627 140.829 10.1013 142.962 9.056C145.117 8.01067 147.613 7.488 150.45 7.488C153.309 7.488 155.805 8.01067 157.938 9.056C160.072 10.1013 161.736 11.5627 162.93 13.44C164.125 15.3173 164.722 17.504 164.722 20C164.722 22.496 164.125 24.6827 162.93 26.56C161.736 28.4373 160.072 29.8987 157.938 30.944C155.805 31.9893 153.309 32.512 150.45 32.512ZM150.45 26.592C152.008 26.592 153.352 26.3253 154.482 25.792C155.613 25.2587 156.477 24.5013 157.074 23.52C157.693 22.5387 158.002 21.3653 158.002 20C158.002 18.6347 157.693 17.4613 157.074 16.48C156.477 15.4987 155.613 14.7413 154.482 14.208C153.352 13.6747 152.008 13.408 150.45 13.408C148.914 13.408 147.581 13.6747 146.45 14.208C145.32 14.7413 144.445 15.4987 143.826 16.48C143.208 17.4613 142.898 18.6347 142.898 20C142.898 21.3653 143.208 22.5387 143.826 23.52C144.445 24.5013 145.32 25.2587 146.45 25.792C147.581 26.3253 148.914 26.592 150.45 26.592ZM185.396 20.256L185.94 19.008C187.796 19.0507 189.321 19.3387 190.516 19.872C191.732 20.384 192.639 21.1093 193.236 22.048C193.833 22.9653 194.132 24.032 194.132 25.248C194.132 26.5493 193.833 27.712 193.236 28.736C192.639 29.7387 191.743 30.5387 190.548 31.136C189.375 31.712 187.903 32 186.132 32H168.404L170.26 19.68L168.404 8H185.492C187.711 8 189.439 8.52267 190.676 9.568C191.913 10.592 192.532 12.0213 192.532 13.856C192.532 14.8587 192.297 15.8187 191.828 16.736C191.359 17.6533 190.601 18.432 189.556 19.072C188.532 19.6907 187.145 20.0853 185.396 20.256ZM174.964 30.464L172.404 27.36H184.34C185.3 27.36 186.047 27.1253 186.58 26.656C187.113 26.1867 187.38 25.536 187.38 24.704C187.38 23.872 187.092 23.2107 186.516 22.72C185.94 22.208 185.087 21.952 183.956 21.952H174.1V17.408H183.06C183.828 17.408 184.468 17.184 184.98 16.736C185.513 16.2667 185.78 15.6373 185.78 14.848C185.78 14.208 185.556 13.6853 185.108 13.28C184.66 12.8533 184.02 12.64 183.188 12.64H172.436L174.964 9.536L176.596 19.68L174.964 30.464ZM211.76 32.512C208.923 32.512 206.427 31.9893 204.272 30.944C202.139 29.8987 200.475 28.4373 199.28 26.56C198.107 24.6827 197.52 22.496 197.52 20C197.52 17.504 198.107 15.3173 199.28 13.44C200.475 11.5627 202.139 10.1013 204.272 9.056C206.427 8.01067 208.923 7.488 211.76 7.488C214.619 7.488 217.115 8.01067 219.248 9.056C221.382 10.1013 223.046 11.5627 224.24 13.44C225.435 15.3173 226.032 17.504 226.032 20C226.032 22.496 225.435 24.6827 224.24 26.56C223.046 28.4373 221.382 29.8987 219.248 30.944C217.115 31.9893 214.619 32.512 211.76 32.512ZM211.76 26.592C213.318 26.592 214.662 26.3253 215.792 25.792C216.923 25.2587 217.787 24.5013 218.384 23.52C219.003 22.5387 219.312 21.3653 219.312 20C219.312 18.6347 219.003 17.4613 218.384 16.48C217.787 15.4987 216.923 14.7413 215.792 14.208C214.662 13.6747 213.318 13.408 211.76 13.408C210.224 13.408 208.891 13.6747 207.76 14.208C206.63 14.7413 205.755 15.4987 205.136 16.48C204.518 17.4613 204.208 18.6347 204.208 20C204.208 21.3653 204.518 22.5387 205.136 23.52C205.755 24.5013 206.63 25.2587 207.76 25.792C208.891 26.3253 210.224 26.592 211.76 26.592Z" fill="white"/>
<path d="M48 0H71V4H49L48 0Z" fill="white"/>
</g>
</svg>
