<svg width="41" height="41" viewBox="0 0 41 41" fill="none" xmlns="http://www.w3.org/2000/svg">
<path d="M20.5003 9.46397C20.2737 9.46397 20.0565 9.37398 19.8963 9.21379C19.7361 9.0536 19.6461 8.83634 19.6461 8.6098V4.18522C19.6461 3.95868 19.7361 3.74142 19.8963 3.58123C20.0565 3.42105 20.2737 3.33105 20.5003 3.33105C20.7268 3.33105 20.9441 3.42105 21.1043 3.58123C21.2645 3.74142 21.3545 3.95868 21.3545 4.18522V8.54147C21.3639 8.65925 21.3488 8.77771 21.3101 8.88937C21.2715 9.00102 21.2101 9.10343 21.1298 9.19014C21.0495 9.27684 20.9521 9.34594 20.8438 9.39307C20.7354 9.44021 20.6184 9.46435 20.5003 9.46397ZM21.3545 36.7973V32.4581C21.3545 32.2316 21.2645 32.0143 21.1043 31.8541C20.9441 31.694 20.7268 31.604 20.5003 31.604C20.2737 31.604 20.0565 31.694 19.8963 31.8541C19.7361 32.0143 19.6461 32.2316 19.6461 32.4581V36.7461C19.6461 36.9726 19.7361 37.1899 19.8963 37.35C20.0565 37.5102 20.2737 37.6002 20.5003 37.6002C20.7268 37.6002 20.9441 37.5102 21.1043 37.35C21.2645 37.1899 21.3545 36.9726 21.3545 36.7461V36.7973ZM37.6861 20.4998C37.6861 20.2733 37.5961 20.056 37.4359 19.8958C37.2758 19.7356 37.0585 19.6456 36.832 19.6456H32.4586C32.2321 19.6456 32.0148 19.7356 31.8546 19.8958C31.6944 20.056 31.6045 20.2733 31.6045 20.4998C31.6045 20.7263 31.6944 20.9436 31.8546 21.1038C32.0148 21.264 32.2321 21.354 32.4586 21.354H36.8149C36.9285 21.3562 37.0414 21.3358 37.147 21.2939C37.2526 21.252 37.3488 21.1895 37.4299 21.1099C37.5111 21.0304 37.5755 20.9354 37.6195 20.8307C37.6635 20.7259 37.6861 20.6134 37.6861 20.4998ZM9.4132 20.4998C9.4132 20.2733 9.32321 20.056 9.16302 19.8958C9.00284 19.7356 8.78558 19.6456 8.55904 19.6456H4.16862C3.94208 19.6456 3.72482 19.7356 3.56463 19.8958C3.40445 20.056 3.31445 20.2733 3.31445 20.4998C3.31445 20.7263 3.40445 20.9436 3.56463 21.1038C3.72482 21.264 3.94208 21.354 4.16862 21.354H8.54195C8.65555 21.3562 8.76847 21.3358 8.87408 21.2939C8.97969 21.252 9.07588 21.1895 9.15701 21.1099C9.23815 21.0304 9.3026 20.9354 9.34659 20.8307C9.39058 20.7259 9.41323 20.6134 9.4132 20.4998ZM12.3686 12.4365C12.4487 12.3571 12.5122 12.2626 12.5556 12.1585C12.599 12.0544 12.6213 11.9428 12.6213 11.83C12.6213 11.7173 12.599 11.6056 12.5556 11.5015C12.5122 11.3974 12.4487 11.303 12.3686 11.2236L9.56695 8.42189C9.49027 8.34018 9.39764 8.27505 9.29481 8.23053C9.19197 8.18601 9.0811 8.16304 8.96904 8.16304C8.85698 8.16304 8.7461 8.18601 8.64327 8.23053C8.54043 8.27505 8.44781 8.34018 8.37112 8.42189C8.29106 8.50129 8.22752 8.59577 8.18415 8.69985C8.14079 8.80394 8.11846 8.91559 8.11846 9.02835C8.11846 9.14111 8.14079 9.25275 8.18415 9.35684C8.22752 9.46093 8.29106 9.5554 8.37112 9.6348L11.1728 12.4365C11.3352 12.5882 11.5485 12.6735 11.7707 12.6756C11.9936 12.677 12.2081 12.5911 12.3686 12.4365ZM9.60112 32.6973L12.5736 29.7077C12.6521 29.6292 12.7144 29.536 12.7569 29.4334C12.7994 29.3308 12.8213 29.2208 12.8213 29.1098C12.8213 28.9988 12.7994 28.8888 12.7569 28.7862C12.7144 28.6836 12.6521 28.5904 12.5736 28.5119C12.4951 28.4334 12.4019 28.3711 12.2993 28.3286C12.1967 28.2861 12.0867 28.2642 11.9757 28.2642C11.8647 28.2642 11.7547 28.2861 11.6521 28.3286C11.5495 28.3711 11.4563 28.4334 11.3778 28.5119L8.3882 31.4844C8.30814 31.5638 8.2446 31.6583 8.20123 31.7624C8.15787 31.8664 8.13554 31.9781 8.13554 32.0908C8.13554 32.2036 8.15787 32.3153 8.20123 32.4193C8.2446 32.5234 8.30814 32.6179 8.3882 32.6973C8.46572 32.7778 8.55856 32.8419 8.66125 32.8859C8.76394 32.9299 8.8744 32.9529 8.98612 32.9536C9.21697 32.953 9.43816 32.8608 9.60112 32.6973ZM32.6465 32.6973C32.8041 32.5348 32.8923 32.3172 32.8923 32.0908C32.8923 31.8644 32.8041 31.6469 32.6465 31.4844L29.657 28.5119C29.5784 28.4334 29.4852 28.3711 29.3826 28.3286C29.28 28.2861 29.1701 28.2642 29.059 28.2642C28.948 28.2642 28.838 28.2861 28.7354 28.3286C28.6329 28.3711 28.5396 28.4334 28.4611 28.5119C28.3826 28.5904 28.3203 28.6836 28.2778 28.7862C28.2353 28.8888 28.2135 28.9988 28.2135 29.1098C28.2135 29.2208 28.2353 29.3308 28.2778 29.4334C28.3203 29.536 28.3826 29.6292 28.4611 29.7077L31.4336 32.6973C31.5966 32.8608 31.8178 32.953 32.0486 32.9536C32.2739 32.9503 32.4888 32.8582 32.6465 32.6973ZM29.657 12.6244L32.6636 9.6348C32.8245 9.47396 32.9148 9.25581 32.9148 9.02835C32.9148 8.80088 32.8245 8.58273 32.6636 8.42189C32.5028 8.26104 32.2846 8.17068 32.0572 8.17068C31.8297 8.17068 31.6115 8.26104 31.4507 8.42189L28.4611 11.4286C28.3794 11.5052 28.3143 11.5979 28.2698 11.7007C28.2252 11.8035 28.2023 11.9144 28.2023 12.0265C28.2023 12.1385 28.2252 12.2494 28.2698 12.3522C28.3143 12.4551 28.3794 12.5477 28.4611 12.6244C28.5378 12.7061 28.6304 12.7712 28.7333 12.8157C28.8361 12.8603 28.947 12.8832 29.059 12.8832C29.1711 12.8832 29.282 12.8603 29.3848 12.8157C29.4876 12.7712 29.5803 12.7061 29.657 12.6244ZM36.3365 27.1965C36.4178 26.9851 36.4153 26.7508 36.3296 26.5412C36.2439 26.3316 36.0814 26.1627 35.8753 26.069L31.7753 24.3606C31.5721 24.2988 31.3532 24.3148 31.1613 24.4056C30.9693 24.4964 30.818 24.6554 30.737 24.8517C30.6559 25.0479 30.6508 25.2674 30.7228 25.4672C30.7947 25.667 30.9385 25.8328 31.1261 25.9323L35.209 27.6406C35.3217 27.6646 35.4381 27.6646 35.5507 27.6406C35.7098 27.6454 35.8671 27.6066 36.0056 27.5283C36.1442 27.45 36.2586 27.3352 36.3365 27.1965ZM5.79154 27.7773L10.0624 25.9836C10.1673 25.9406 10.2626 25.8772 10.3428 25.797C10.423 25.7168 10.4864 25.6214 10.5293 25.5165C10.5723 25.4115 10.5939 25.2991 10.5929 25.1857C10.5919 25.0723 10.5684 24.9602 10.5236 24.8561C10.4332 24.6471 10.2646 24.4818 10.0539 24.3956C9.84316 24.3094 9.60706 24.3091 9.39612 24.3948L5.12529 26.2056C4.9192 26.2994 4.75668 26.4683 4.67096 26.6779C4.58523 26.8874 4.58275 27.1218 4.66404 27.3331C4.73072 27.4859 4.84065 27.6159 4.98029 27.7069C5.11993 27.798 5.28316 27.8462 5.44987 27.8456C5.56749 27.8493 5.68438 27.8259 5.79154 27.7773ZM27.0432 36.4727C27.2552 36.3855 27.4244 36.2183 27.5139 36.0072C27.6035 35.7961 27.6062 35.5583 27.5215 35.3452L25.8132 31.1769C25.7718 31.0725 25.7102 30.9773 25.6319 30.8968C25.5537 30.8162 25.4603 30.7519 25.3572 30.7074C25.254 30.663 25.1432 30.6394 25.0309 30.6378C24.9186 30.6363 24.8071 30.6569 24.7028 30.6986C24.5985 30.7397 24.5035 30.8014 24.4235 30.88C24.3434 30.9586 24.28 31.0525 24.237 31.1561C24.194 31.2597 24.1722 31.3708 24.173 31.483C24.1738 31.5951 24.1971 31.706 24.2415 31.809L25.9499 35.9944C26.0158 36.1491 26.1251 36.2814 26.2645 36.3754C26.4039 36.4693 26.5676 36.5209 26.7357 36.524C26.8403 36.5232 26.944 36.5059 27.0432 36.4727ZM15.0849 36.0115L16.7932 31.826C16.8421 31.722 16.8696 31.6092 16.8739 31.4943C16.8781 31.3795 16.8592 31.2649 16.8182 31.1575C16.7771 31.0501 16.7148 30.9521 16.635 30.8694C16.5552 30.7867 16.4595 30.7209 16.3537 30.676C16.2478 30.6312 16.134 30.6081 16.0191 30.6083C15.9041 30.6085 15.7904 30.6318 15.6847 30.677C15.5789 30.7222 15.4834 30.7882 15.4039 30.8712C15.3243 30.9541 15.2623 31.0523 15.2215 31.1598L13.5132 35.3452C13.4272 35.5516 13.4255 35.7835 13.5085 35.9911C13.5916 36.1987 13.7527 36.3655 13.9574 36.4556C14.07 36.4796 14.1864 36.4796 14.299 36.4556C14.4498 36.453 14.5972 36.4105 14.7262 36.3325C14.8552 36.2545 14.9613 36.1437 15.0336 36.0115H15.0849ZM26.0524 10.1473L27.8632 5.91064C27.9063 5.80215 27.9267 5.68598 27.9231 5.5693C27.9195 5.45262 27.8921 5.33791 27.8425 5.23225C27.7928 5.1266 27.7221 5.03223 27.6346 4.95499C27.547 4.87774 27.4446 4.81925 27.3336 4.78314C27.1247 4.70263 26.8928 4.70562 26.6861 4.79151C26.4793 4.87739 26.3136 5.03956 26.2232 5.24439L24.4807 9.46397C24.436 9.56816 24.4124 9.68022 24.4114 9.79361C24.4105 9.907 24.4321 10.0194 24.475 10.1244C24.5179 10.2294 24.5813 10.3247 24.6615 10.4049C24.7417 10.4851 24.837 10.5485 24.942 10.5915C25.0488 10.6157 25.1597 10.6157 25.2665 10.5915C25.4263 10.6003 25.5852 10.5631 25.7245 10.4844C25.8637 10.4057 25.9775 10.2887 26.0524 10.1473ZM10.2503 16.2973C10.2912 16.1931 10.3108 16.0818 10.3079 15.9699C10.305 15.8581 10.2797 15.7479 10.2335 15.646C10.1873 15.5441 10.1212 15.4524 10.039 15.3765C9.95675 15.3006 9.86015 15.2419 9.75487 15.204L5.67195 13.6665C5.56658 13.6253 5.45409 13.6055 5.341 13.6082C5.22792 13.6109 5.11649 13.636 5.01318 13.6821C4.90988 13.7281 4.81676 13.7943 4.73922 13.8767C4.66169 13.959 4.6013 14.056 4.56154 14.1619C4.50124 14.3793 4.52595 14.6116 4.63065 14.8115C4.73536 15.0113 4.9122 15.1639 5.12529 15.2381L9.27654 16.7927H9.58404C9.72913 16.7769 9.86737 16.7227 9.9845 16.6356C10.1016 16.5485 10.1934 16.4317 10.2503 16.2973ZM31.9461 16.7073L35.824 14.999C36.0289 14.9086 36.191 14.7428 36.2769 14.5361C36.3628 14.3293 36.3658 14.0975 36.2853 13.8886C36.2423 13.7836 36.1789 13.6883 36.0987 13.6081C36.0185 13.5279 35.9232 13.4645 35.8182 13.4216C35.7133 13.3787 35.6008 13.3571 35.4874 13.358C35.374 13.359 35.262 13.3826 35.1578 13.4273L31.2799 15.0502C31.074 15.1438 30.9125 15.3137 30.8297 15.5241C30.7468 15.7345 30.7489 15.9689 30.8357 16.1777C30.8998 16.3337 31.0086 16.4672 31.1484 16.5615C31.2883 16.6557 31.4529 16.7065 31.6215 16.7073C31.7459 16.7287 31.873 16.7287 31.9974 16.7073H31.9461Z" fill="#E20613"/>
</svg>
