<svg width="22" height="22" viewBox="0 0 22 22" fill="none" xmlns="http://www.w3.org/2000/svg">
<g clip-path="url(#clip0_402_3795)">
<path d="M20.0357 9.03572H13.3571C13.1402 9.03572 12.9643 8.85981 12.9643 8.64286V1.96429C12.9643 0.879517 12.0848 0 11 0C9.91523 0 9.03572 0.879517 9.03572 1.96429V8.64286C9.03572 8.85981 8.85981 9.03572 8.64286 9.03572H1.96429C0.879517 9.03572 0 9.91523 0 11C0 12.0848 0.879517 12.9643 1.96429 12.9643H8.64286C8.85981 12.9643 9.03572 13.1402 9.03572 13.3571V20.0357C9.03572 21.1205 9.91523 22 11 22C12.0848 22 12.9643 21.1205 12.9643 20.0357V13.3571C12.9643 13.1402 13.1402 12.9643 13.3571 12.9643H20.0357C21.1205 12.9643 22 12.0848 22 11C22 9.91523 21.1205 9.03572 20.0357 9.03572Z" fill="#F42D26"/>
</g>
<defs>
<clipPath id="clip0_402_3795">
<rect width="22" height="22" fill="white"/>
</clipPath>
</defs>
</svg>
